# xmcd
#
# Track frame offsets:
#	150
#	13045
#	24912
#	35755
#	47447
#	59040
#	72117
#	82025
#	95777
#	108930
#	122760
#	133125
#
# Disc length: 1987 seconds
#
# Revision: 8
# Processed by: cddbd v1.5.2PL0 Copyright (c) Steve Scherf et al.
# Submitted via: audiograbber 1.83.01
#
DISCID=a507c10c
DTITLE=Loretta Dolly Tammy - Honky Tonk Angels
DYEAR=1993
DGENRE=Country
TTITLE0=It Wasn't God Who Made Honky Tonk Angels (With Special Guest, Kitty Wel
TTITLE0=ls)
TTITLE1=Put It Off Until Tomorrow
TTITLE2=Silver Threads And Golden Needles
TTITLE3=Please Help Me I'm Falling (In Love With You)
TTITLE4=Sittin' On The Front Porch Swing
TTITLE5=Wings Of A Dove
TTITLE6=I Forgot More Than You'll Ever Know
TTITLE7=Wouldn't It Be Great
TTITLE8=That's The Way It Could Have Been
TTITLE9=Let Her Fly
TTITLE10=Lovesick Blues (With Special Guest, Patsy Cline)
TTITLE11=I Dreamed Of A Hillbilly Heaven
EXTD=
EXTT0=
EXTT1=
EXTT2=
EXTT3=
EXTT4=
EXTT5=
EXTT6=
EXTT7=
EXTT8=
EXTT9=
EXTT10=
EXTT11=
PLAYORDER=
